<?xml version="1.0" encoding="UTF-8" standalone="no"?>
<svg
   xmlns:dc="http://purl.org/dc/elements/1.1/"
   xmlns:cc="http://creativecommons.org/ns#"
   xmlns:rdf="http://www.w3.org/1999/02/22-rdf-syntax-ns#"
   xmlns:svg="http://www.w3.org/2000/svg"
   xmlns="http://www.w3.org/2000/svg"
   xmlns:sodipodi="http://sodipodi.sourceforge.net/DTD/sodipodi-0.dtd"
   xmlns:inkscape="http://www.inkscape.org/namespaces/inkscape"
   version="1.1"
   width="2100.00mm"
   height="2970.00mm"
   viewBox="0 0 2100.00 2970.00"
   id="svg2"
   inkscape:version="0.91 r13725"
   sodipodi:docname="JellySchabd60-145.svg">
  <metadata
     id="metadata16">
    <rdf:RDF>
      <cc:Work
         rdf:about="">
        <dc:format>image/svg+xml</dc:format>
        <dc:type
           rdf:resource="http://purl.org/dc/dcmitype/StillImage" />
        <dc:title></dc:title>
      </cc:Work>
    </rdf:RDF>
  </metadata>
  <defs
     id="defs14" />
  <sodipodi:namedview
     pagecolor="#ffffff"
     bordercolor="#666666"
     borderopacity="1"
     objecttolerance="10"
     gridtolerance="10"
     guidetolerance="10"
     inkscape:pageopacity="0"
     inkscape:pageshadow="2"
     inkscape:window-width="1067"
     inkscape:window-height="541"
     id="namedview12"
     showgrid="false"
     inkscape:zoom="0.5"
     inkscape:cx="585.17687"
     inkscape:cy="6272.9922"
     inkscape:window-x="-8"
     inkscape:window-y="-8"
     inkscape:window-maximized="1"
     inkscape:current-layer="svg2" />
  <style
     type="text/css"
     id="style4">
    path {
        fill: none;
        stroke-linecap: butt;
        stroke-linejoin: bevel;
        stroke-dasharray: none;
    }
    path.outer {
        stroke: #000000;
        stroke-dasharray: none;
        stroke-dashoffset: 0;
        stroke-width: 0.3;
        stroke-opacity: 1.0;
    }
    path.convex {
        stroke: #000000;
        stroke-dasharray: 0.50,1.00;
        stroke-dashoffset:0;
        stroke-width:0.2;
        stroke-opacity: 1.0
    }
    path.concave {
        stroke: #000000;
        stroke-dasharray: 1.00,0.50,0.20,0.50;
        stroke-dashoffset: 0;
        stroke-width: 0.2;
        stroke-opacity: 1.0
    }
    path.freestyle {
        stroke: #000000;
        stroke-dasharray: none;
        stroke-dashoffset: 0;
        stroke-width: 0.2;
        stroke-opacity: 1.0
    }
    path.outer_background {
        stroke: #ffffff;
        stroke-opacity: 1.0;
        stroke-width: 0.5
    }
    path.inner_background {
        stroke: #ffffff;
        stroke-opacity: 1.0;
        stroke-width: 0.2
    }
    path.sticker {
        fill: #e5e5e5;
        stroke: none;
        fill-opacity: 1.0;
    }
    path.arrow {
        fill: #000;
    }
    text {
        font-style: normal;
        fill: #000000;
        fill-opacity: 1.0;
        stroke: none;
    }
    text, tspan {
        text-anchor:middle;
    }
    </style>
  <g
     id="g6">
    <path
       class="outer"
       d=" M 5.000000 2032.221313 L 5.500739 1992.982621 L 6.994282 1953.769083 L 9.455119 1914.604540 L 12.841140 1875.508900 L 17.094438 1836.498256 L 22.142177 1797.582502 L 27.898018 1758.764978 L 34.263526 1720.042820 L 41.129743 1681.406255 L 48.379173 1642.839785 L 55.887793 1604.323025 L 63.527127 1565.831895 L 71.166475 1527.340765 L 78.675111 1488.824005 L 85.924526 1450.257654 L 92.790713 1411.621208 L 99.156176 1372.898932 L 104.912077 1334.081407 L 109.959831 1295.165653 L 114.213173 1256.154890 L 117.599224 1217.059488 L 120.060076 1177.894826 L 121.553604 1138.681526 L 122.054328 1099.442835 L 170.826887 1099.442835 L 171.327581 1138.681526 L 172.821139 1177.894945 L 175.282006 1217.059488 L 178.667997 1256.155009 L 182.921250 1295.165653 L 187.969004 1334.081407 L 193.724846 1372.898932 L 200.090353 1411.621089 L 206.956540 1450.257654 L 214.205955 1488.824124 L 221.714546 1527.340884 L 229.353850 1565.832014 L 236.993154 1604.323025 L 244.501759 1642.839904 L 251.751159 1681.406374 L 258.617346 1720.042820 L 264.982824 1758.765097 L 270.738666 1797.582383 L 275.786464 1836.498137 L 280.039732 1875.509019 L 283.425753 1914.604540 L 285.886650 1953.769083 L 287.380193 1992.982621 L 287.880902 2032.221253 L 287.380193 2071.459944 L 285.886650 2110.673423 L 283.425783 2149.838085 L 280.039762 2188.933606 L 275.786494 2227.944250 L 270.738726 2266.860123 L 264.982884 2305.677528 L 258.617346 2344.399686 L 251.751204 2383.036132 L 244.501789 2421.602721 L 236.993183 2460.119600 L 229.353880 2498.610611 L 221.714561 2537.101741 L 214.205955 2575.618501 L 206.956540 2614.185090 L 200.090324 2652.821655 L 193.724816 2691.543574 L 187.968914 2730.361219 L 182.921086 2769.277091 L 178.667744 2808.287854 L 175.281663 2847.383494 L 172.820692 2886.547918 L 171.327029 2925.761457 L 170.826201 2965.000029 L 122.053658 2964.999790 L 121.553068 2925.761218 L 120.059629 2886.547680 L 117.598911 2847.383256 L 114.212920 2808.287735 L 109.959682 2769.277210 L 104.911988 2730.361099 L 99.156161 2691.543694 L 92.790698 2652.821417 L 85.924526 2614.184852 L 78.675111 2575.618620 L 71.166490 2537.101741 L 63.527157 2498.610730 L 55.887823 2460.119600 L 48.379202 2421.602721 L 41.129787 2383.036251 L 34.263556 2344.399805 L 27.898048 2305.677528 L 22.142206 2266.860123 L 17.094468 2227.944250 L 12.841170 2188.933725 L 9.455119 2149.838085 L 6.994282 2110.673423 L 5.500709 2071.460004 Z "
       id="path10" />
  </g>
</svg>
