<?xml version="1.0" encoding="UTF-8"?>
<!DOCTYPE svg PUBLIC "-//W3C//DTD SVG 1.1//EN" "http://www.w3.org/Graphics/SVG/1.1/DTD/svg11.dtd">
<!-- Creator: CorelDRAW Home & Student X7 -->
<svg xmlns="http://www.w3.org/2000/svg" xml:space="preserve" width="210mm" height="297mm" version="1.1" style="shape-rendering:geometricPrecision; text-rendering:geometricPrecision; image-rendering:optimizeQuality; fill-rule:evenodd; clip-rule:evenodd"
viewBox="0 0 21000 29700"
 xmlns:xlink="http://www.w3.org/1999/xlink">
 <defs>
  <style type="text/css">
   <![CDATA[
    .str0 {stroke:#2B2A29;stroke-width:20}
    .fil0 {fill:none}
   ]]>
  </style>
 </defs>
 <g id="Ebene_x0020_1">
  <metadata id="CorelCorpID_0Corel-Layer"/>
  <path class="fil0 str0" d="M20515 13690l4785 -5441 63 0 0 -2000 -3000 0 0 1135 1031 0 0 820 -1038 0c-1056,1207 -1953,2504 -2693,3863l-2942 2188 -16373 0 -3305 -2378c-702,-1225 -1535,-2396 -2498,-3492l0 20 -1016 0 0 -794 1063 0 0 -1156 -3000 0 0 2000 65 0 4471 4873c720,1382 1267,2831 1642,4314l0 9844c-361,1427 -881,2821 -1561,4156l-4727 5182 -43 0 0 2000 3000 0 0 -1093 -1063 0 0 -870 1063 0c1091,-1222 2017,-2539 2779,-3922l3266 -2381 16155 0 3207 2387c745,1314 1640,2566 2683,3730l1024 0 0 860 -1084 0 0 1104 3000 0 0 -2000 -70 0 -4423 -4747c-851,-1565 -1478,-3220 -1881,-4919l0 -9266c326,-1375 799,-2722 1420,-4017zm-21057 4623l2049 -2058 6640 0 0 -825 800 0 0 825 6502 0 1982 2069c-235,1241 -359,2499 -375,3757l899 0 0 800 -893 0c28,1123 143,2245 346,3353l-1952 2324 -6593 0 0 834 -800 0 0 -834 -6435 0 -2061 -2326c188,-1092 291,-2196 310,-3301l-863 0 0 -800 862 0c-26,-1280 -165,-2558 -418,-3818z"/>
 </g>
</svg>
