<?xml version="1.0" encoding="UTF-8"?>
<!DOCTYPE svg PUBLIC "-//W3C//DTD SVG 1.1//EN" "http://www.w3.org/Graphics/SVG/1.1/DTD/svg11.dtd">
<!-- Creator: CorelDRAW Home & Student X7 -->
<svg xmlns="http://www.w3.org/2000/svg" xml:space="preserve" width="210mm" height="300mm" version="1.1" style="shape-rendering:geometricPrecision; text-rendering:geometricPrecision; image-rendering:optimizeQuality; fill-rule:evenodd; clip-rule:evenodd"
viewBox="0 0 21000 30000"
 xmlns:xlink="http://www.w3.org/1999/xlink">
 <defs>
  <style type="text/css">
   <![CDATA[
    .str0 {stroke:#2B2A29;stroke-width:20}
    .fil0 {fill:none}
   ]]>
  </style>
 </defs>
 <g id="Ebene_x0020_1">
  <metadata id="CorelCorpID_0Corel-Layer"/>
  <path class="fil0 str0" d="M335 19106c5679,174 10248,4751 10410,10432l-763 0 0 800 756 0c-250,5596 -4778,10078 -10392,10256l0 -789 -800 0 0 785c-5570,-232 -10044,-4700 -10285,-10268l816 0 0 -800 -822 0c169,-5630 4668,-10173 10280,-10411l0 776 800 0 0 -781zm-1692 18103l2500 0 0 937 2953 0c1840,-911 3334,-2415 4230,-4263l0 -2705 -940 0 0 -2500 940 0 0 -2861c-900,-1856 -2403,-3365 -4255,-4274l0 1 -2864 0 0 954 -2500 0 0 -954 -2781 0c-1860,914 -3368,2434 -4267,4304l0 2851 953 0 0 2500 -953 0 0 2654c895,1862 2395,3377 4245,4293l2739 0 0 -937z"/>
 </g>
</svg>
