<?xml version="1.0" encoding="UTF-8"?>
<!DOCTYPE svg PUBLIC "-//W3C//DTD SVG 1.1//EN" "http://www.w3.org/Graphics/SVG/1.1/DTD/svg11.dtd">
<!-- Creator: CorelDRAW Home & Student X7 -->
<svg xmlns="http://www.w3.org/2000/svg" xml:space="preserve" width="210mm" height="297mm" version="1.1" style="shape-rendering:geometricPrecision; text-rendering:geometricPrecision; image-rendering:optimizeQuality; fill-rule:evenodd; clip-rule:evenodd"
viewBox="0 0 21000 29700"
 xmlns:xlink="http://www.w3.org/1999/xlink">
 <defs>
  <style type="text/css">
   <![CDATA[
    .str0 {stroke:#2B2A29;stroke-width:20}
    .fil0 {fill:none}
   ]]>
  </style>
 </defs>
 <g id="Ebene_x0020_1">
  <metadata id="CorelCorpID_0Corel-Layer"/>
  <path class="fil0 str0" d="M385 13204c8836,180 15966,7306 16153,16141l-893 0 0 800 891 0c-233,8793 -7345,15871 -16151,16051l0 -939 -800 0 0 936c-8754,-238 -15806,-7295 -16037,-16051l897 0 0 -800 -898 0c187,-8795 7255,-15896 16038,-16135l0 877 800 0 0 -880zm13845 21812l0 -10192c-1516,-4196 -4849,-7522 -9050,-9028l-10124 0c-4262,1528 -7632,4930 -9116,9214l0 9818c1453,4197 4717,7548 8857,9120l10641 0c4079,-1548 7307,-4823 8792,-8932z"/>
  <rect class="fil0 str0" x="8377" y="27385" width="127" height="84.67"/>
 </g>
</svg>
